<?xml version="1.0" encoding="UTF-8"?>
<svg id="Layer_1" data-name="Layer 1" xmlns="http://www.w3.org/2000/svg" viewBox="0 0 346.91 376.29">
  <defs>
    <style>
      .cls-1 {
        font-family: BodoniSvtyTwoSCITCTT-Book, 'Bodoni 72 Smallcaps';
        font-size: 79.78px;
      }

      .cls-1, .cls-2 {
        fill: #d89fa2;
      }

      .cls-3 {
        font-family: MyriadPro-Regular, 'Myriad Pro';
        font-size: 75.1px;
      }

      .cls-3, .cls-4 {
        fill: #123f6d;
      }

      .cls-5 {
        letter-spacing: -.07em;
      }

      .cls-4, .cls-2, .cls-6, .cls-7 {
        stroke-width: 0px;
      }

      .cls-6 {
        fill: #adcdec;
      }

      .cls-7 {
        fill: #fff;
      }
    </style>
  </defs>
  <g>
    <path class="cls-2" d="M192.18,182.47c-5.5-18.08-68.54-48.35-116.62-39.22-13.72,2.6-6.77,29.37.41,47.47,7.01,17.67,30.05,38.4,20.83,23.56-41.9-67.39,22.27-55.76,32.26-54.11,30.38,5.01,44.68,12.1,51.63,18.47,1.36,1.25,6.42,5.33,5.68,11.25,0,0,5.39-.07,6.02-.01.46-2.43.53-4.98-.21-7.41Z"/>
    <path class="cls-4" d="M144.21,221.42c9.75,0,21.22-1.98,29.5-5.15,10.75-4.12,15.5-13.49,17.53-20.41h11.4s0-6,0-6h-16.27s-.47,1.9-.47,1.9c-3.2,12.89-9.91,17.91-14.98,19.85-19.81,7.58-54.9,1.45-55.25,1.39l-.88,5.92c.91.16,14.31,2.51,29.42,2.51Z"/>
    <path class="cls-4" d="M104.77,181.39l3.74-3.7c1.65,1.66,5.67,4.47,8.23,5.34-1.19-.52-4.62-3.47-5.7-5.78l4.07-2.42c1.87,2.83,3.6,4.03,4.92,4.36-.82-.57-2.56-2.39-3.22-4.19l3.87-1.68c.59,1.54,2.36,3.27,2.72,3.33,1.13-1.25,5.06-3.58,17.75-4.27,16.67-.9,30.05,2.72,35.83,9.68,3.82,4.6,3.17,8.04,3.17,8.04,0,0-3.69-.11-4.43,0-.39-1.29.76-10.8-22.58-11.44-27.02-.74-27.99,8.58-28.55,11.75-.14.81-5.8-.49-7.35-1.17-5.64-2.49-10.89-5.99-12.49-7.85Z"/>
  </g>
  <path class="cls-6" d="M209.13,11.15s22.07-12.22,61.42,26.79c65.08,64.5,72.83,122.64,74.42,132.63,7.33,46-7.06,69.97-28.06,102.38-15.61,24.09-24.34,48.89-8.16,90.59-22.6-34.16-33.74-54.98-11.42-92.85,22.32-37.87,31.86-54.65,19.93-102.96-10.79-43.67-38.28-138.14-108.13-156.57Z"/>
  <path class="cls-4" d="M165.97,9.1s31.39-26.84,81.98,11.69c49.89,37.99,73.13,106.78,77.03,116.11,6.67,15.96,10.85,66.13-8.56,99.56-19.41,33.43-32.78,63.17-14.2,97.78,18.58,34.61,21.34,59.93-1.7,26.06s-59.78-52.01-37.96-90.16c21.82-38.16,62.94-47.65,47.68-95.01-12.1-37.55-105.74-112.99-133.24-150.67-10.58-12.28-6.06-9.71-11.03-15.35Z"/>
  <path class="cls-4" d="M159.66,13.17c-18.23-21.29-73.23,56.32-99.08,127.87-11.75,32.51-2.74,61.45,11.65,98.8l33.03.89c-4.02-31.08-1.49-50.65,7.52-79.14,12.96-41.03,13.31-91.07,47.55-104.53,29.54-11.61,26.6-3.99,36.31-5.3,0,0-31.55-32.25-36.98-38.59Z"/>
  <path class="cls-2" d="M212.95,182.47c5.5-18.08,68.54-48.35,116.62-39.22,13.72,2.6,6.77,29.37-.41,47.47-7.01,17.67-30.05,38.4-20.83,23.56,41.9-67.39-22.27-55.76-32.26-54.11-30.38,5.01-44.68,12.1-51.63,18.47-1.36,1.25-6.42,5.33-5.68,11.25,0,0-5.39-.07-6.02-.01-.46-2.43-.53-4.98.21-7.41Z"/>
  <path class="cls-4" d="M300.36,182.17l-3.74-3.7c-1.65,1.66-5.67,4.47-8.23,5.34,1.19-.52,4.62-3.47,5.7-5.78l-4.07-2.42c-1.87,2.83-3.6,4.03-4.92,4.36.82-.57,2.56-2.39,3.22-4.19l-3.87-1.68c-.59,1.54-2.36,3.27-2.72,3.33-1.13-1.25-5.06-3.58-17.75-4.27-16.67-.9-30.05,2.72-35.83,9.68-3.82,4.6-3.17,8.04-3.17,8.04,0,0,3.69-.11,4.43,0,.39-1.29-.76-10.8,22.58-11.44,27.02-.74,27.99,8.58,28.55,11.75.14.81,5.8-.49,7.35-1.17,5.64-2.49,10.89-5.99,12.49-7.85Z"/>
  <path class="cls-4" d="M260.92,221.42c-9.75,0-21.22-1.98-29.5-5.15-10.75-4.12-15.5-13.49-17.53-20.41h-11.4v-6h16.27l.47,1.9c3.2,12.89,9.91,17.91,14.98,19.85,19.81,7.58,54.9,1.45,55.25,1.39l.88,5.92c-.91.16-14.31,2.51-29.42,2.51Z"/>
  <text class="cls-3" transform="translate(0 298.74)"><tspan x="0" y="0">DIGI</tspan><tspan class="cls-5" x="134.44" y="0">T</tspan><tspan x="166.13" y="0">AL</tspan></text>
  <text class="cls-1" transform="translate(100.58 342.87)"><tspan x="0" y="0">nerd</tspan></text>
  <g>
    <path class="cls-2" d="M46.77,137.41s2.91-37.87,11.64-15.55c7.09,18.11,14.74,5.93,24.47,10.62,7.58,3.66-11.41,15.96-7.94,22.24,8.11,14.69,10.22,25.96-3.98,20.18-3-1.22-9.94-7.69-15.53-4.86-13.12,6.65-28.8,19.01-18.37-7.73,5.23-13.4-46.49-16.34,9.7-24.9Z"/>
    <rect class="cls-7" x="49.18" y="145.67" width="11.98" height="11.98" transform="translate(-45.71 25.69) rotate(-18.7)"/>
  </g>
  <path class="cls-6" d="M84.27,240.16c-19.21-38.55-29.38-69.28-29.38-69.28,0,0-5.18,28,2.99,68.58l26.38.71Z"/>
</svg>